<svg width="88" height="30" viewBox="0 0 88 30" fill="none" xmlns="http://www.w3.org/2000/svg">
<path d="M6.388 24.248H14.452V29H0.232V3.728H6.388V24.248ZM20.4843 6.824C19.4043 6.824 18.5163 6.512 17.8203 5.888C17.1483 5.24 16.8123 4.448 16.8123 3.512C16.8123 2.552 17.1483 1.76 17.8203 1.136C18.5163 0.487998 19.4043 0.163998 20.4843 0.163998C21.5403 0.163998 22.4043 0.487998 23.0763 1.136C23.7723 1.76 24.1203 2.552 24.1203 3.512C24.1203 4.448 23.7723 5.24 23.0763 5.888C22.4043 6.512 21.5403 6.824 20.4843 6.824ZM23.5443 8.912V29H17.3883V8.912H23.5443ZM34.1614 2.36V29H28.0054V2.36H34.1614ZM41.7186 6.824C40.6386 6.824 39.7506 6.512 39.0546 5.888C38.3826 5.24 38.0466 4.448 38.0466 3.512C38.0466 2.552 38.3826 1.76 39.0546 1.136C39.7506 0.487998 40.6386 0.163998 41.7186 0.163998C42.7746 0.163998 43.6386 0.487998 44.3106 1.136C45.0066 1.76 45.3546 2.552 45.3546 3.512C45.3546 4.448 45.0066 5.24 44.3106 5.888C43.6386 6.512 42.7746 6.824 41.7186 6.824ZM44.7786 8.912V29H38.6226V8.912H44.7786ZM68.1758 18.632C68.1758 19.208 68.1398 19.808 68.0678 20.432H54.1358C54.2318 21.68 54.6278 22.64 55.3238 23.312C56.0438 23.96 56.9198 24.284 57.9518 24.284C59.4878 24.284 60.5558 23.636 61.1558 22.34H67.7078C67.3718 23.66 66.7598 24.848 65.8718 25.904C65.0078 26.96 63.9158 27.788 62.5958 28.388C61.2758 28.988 59.7998 29.288 58.1678 29.288C56.1998 29.288 54.4478 28.868 52.9118 28.028C51.3758 27.188 50.1758 25.988 49.3118 24.428C48.4478 22.868 48.0158 21.044 48.0158 18.956C48.0158 16.868 48.4358 15.044 49.2758 13.484C50.1398 11.924 51.3398 10.724 52.8758 9.884C54.4118 9.044 56.1758 8.624 58.1678 8.624C60.1118 8.624 61.8398 9.032 63.3518 9.848C64.8638 10.664 66.0398 11.828 66.8798 13.34C67.7438 14.852 68.1758 16.616 68.1758 18.632ZM61.8758 17.012C61.8758 15.956 61.5158 15.116 60.7958 14.492C60.0758 13.868 59.1758 13.556 58.0958 13.556C57.0638 13.556 56.1878 13.856 55.4678 14.456C54.7718 15.056 54.3398 15.908 54.1718 17.012H61.8758ZM79.5954 29.288C77.8434 29.288 76.2834 28.988 74.9154 28.388C73.5474 27.788 72.4674 26.972 71.6754 25.94C70.8834 24.884 70.4394 23.708 70.3434 22.412H76.4274C76.4994 23.108 76.8234 23.672 77.3994 24.104C77.9754 24.536 78.6834 24.752 79.5234 24.752C80.2914 24.752 80.8794 24.608 81.2874 24.32C81.7194 24.008 81.9354 23.612 81.9354 23.132C81.9354 22.556 81.6354 22.136 81.0354 21.872C80.4354 21.584 79.4634 21.272 78.1194 20.936C76.6794 20.6 75.4794 20.252 74.5194 19.892C73.5594 19.508 72.7314 18.92 72.0354 18.128C71.3394 17.312 70.9914 16.22 70.9914 14.852C70.9914 13.7 71.3034 12.656 71.9274 11.72C72.5754 10.76 73.5114 10.004 74.7354 9.452C75.9834 8.9 77.4594 8.624 79.1634 8.624C81.6834 8.624 83.6634 9.248 85.1034 10.496C86.5674 11.744 87.4074 13.4 87.6234 15.464H81.9354C81.8394 14.768 81.5274 14.216 80.9994 13.808C80.4954 13.4 79.8234 13.196 78.9834 13.196C78.2634 13.196 77.7114 13.34 77.3274 13.628C76.9434 13.892 76.7514 14.264 76.7514 14.744C76.7514 15.32 77.0514 15.752 77.6514 16.04C78.2754 16.328 79.2354 16.616 80.5314 16.904C82.0194 17.288 83.2314 17.672 84.1674 18.056C85.1034 18.416 85.9194 19.016 86.6154 19.856C87.3354 20.672 87.7074 21.776 87.7314 23.168C87.7314 24.344 87.3954 25.4 86.7234 26.336C86.0754 27.248 85.1274 27.968 83.8794 28.496C82.6554 29.024 81.2274 29.288 79.5954 29.288Z" fill="white"/>
</svg>
